<?xml version="1.0" encoding="UTF-8" standalone="no"?>
<svg version="1.0" xmlns="http://www.w3.org/2000/svg"
 width="2000.000000pt" height="400.000000pt" viewBox="0 0 2000.000000 400.000000"
 preserveAspectRatio="xMidYMid meet">
<g transform="translate(0.000000,400.000000) scale(0.100000,-0.100000)"
fill="#000000" stroke="none">
<path d="M16385 2603 c3 -566 8 -1050 11 -1078 17 -175 128 -323 279 -372 114
-37 414 -26 573 22 l52 16 0 161 0 160 -27 -6 c-16 -4 -67 -9 -115 -13 -148
-10 -211 29 -243 152 -13 50 -15 146 -15 612 l0 553 190 0 190 0 0 175 0 175
-190 0 -190 0 0 235 0 235 -261 0 -260 0 6 -1027z"/>
<path d="M8152 3216 c-193 -37 -332 -152 -443 -366 l-34 -65 -7 190 c-5 105
-10 196 -13 203 -3 10 -59 12 -252 10 -215 -3 -247 -5 -243 -18 3 -8 7 -460
10 -1005 l5 -990 257 -3 257 -2 4 612 c3 526 6 623 20 683 37 153 128 289 225
336 34 17 63 22 117 22 117 0 184 -42 241 -154 57 -114 57 -117 61 -836 l4
-663 255 0 254 0 0 548 c0 567 6 679 41 797 62 207 163 307 314 309 140 2 230
-77 281 -249 16 -54 18 -127 23 -730 l6 -670 258 -3 258 -2 -4 747 c-3 737 -3
749 -25 833 -87 327 -290 483 -612 467 -256 -13 -417 -122 -539 -364 -17 -35
-35 -63 -39 -63 -4 0 -17 33 -29 73 -39 130 -134 247 -245 303 -101 51 -281
73 -406 50z"/>
<path d="M13611 3199 c-214 -32 -381 -151 -493 -348 l-46 -82 -6 118 c-4 65
-10 154 -14 198 l-7 80 -249 3 -248 2 6 -47 c4 -27 9 -477 12 -1000 l6 -953
259 0 259 0 0 590 c0 648 2 679 60 807 37 81 125 174 199 211 50 24 67 27 161
27 95 0 110 -3 156 -27 88 -47 138 -119 177 -256 20 -74 21 -101 25 -714 l3
-638 255 0 254 0 0 683 c0 750 -3 804 -59 956 -55 151 -150 264 -273 327 -109
55 -303 83 -437 63z"/>
<path d="M11055 3189 c-114 -15 -224 -47 -324 -95 -127 -62 -221 -154 -280
-275 -34 -70 -77 -207 -68 -216 3 -2 311 -19 476 -25 l64 -3 13 57 c38 165
137 236 314 226 134 -8 209 -63 246 -182 9 -29 18 -105 21 -178 l6 -128 -224
0 c-379 0 -527 -22 -688 -102 -146 -72 -239 -183 -287 -344 -26 -82 -26 -303
-1 -394 29 -107 65 -169 141 -245 109 -108 216 -151 406 -162 225 -12 415 57
554 204 30 31 71 85 92 120 20 35 40 63 44 63 3 0 12 -27 18 -60 13 -70 49
-154 88 -205 34 -45 130 -92 218 -105 95 -15 293 3 409 36 15 5 17 20 17 142
l0 137 -91 0 -90 0 -34 37 c-18 20 -39 53 -46 75 -8 26 -14 196 -19 563 -5
440 -9 534 -23 581 -64 220 -201 363 -427 441 -123 43 -352 59 -525 37z m469
-1199 c-2 -156 -51 -284 -146 -380 -61 -62 -116 -94 -193 -114 -113 -30 -197
-17 -264 41 -57 48 -76 106 -76 228 0 90 3 106 29 158 55 113 139 144 416 157
91 4 181 7 200 6 l35 -1 -1 -95z"/>
<path d="M15158 2171 c-318 -550 -578 -1002 -578 -1005 0 -3 116 -6 258 -6
l257 1 575 995 c316 548 577 1000 578 1005 2 5 -102 9 -255 9 l-258 0 -577
-999z"/>
<path d="M17400 3161 c0 -5 176 -449 390 -987 215 -537 390 -986 390 -997 0
-10 -26 -74 -58 -141 -79 -164 -137 -228 -232 -257 -71 -21 -155 -27 -270 -20
l-65 5 0 -184 0 -184 30 -9 c17 -5 109 -11 206 -14 213 -7 287 6 427 73 152
73 259 201 381 455 46 94 547 1409 832 2182 l28 77 -273 0 -273 0 -151 -477
c-83 -263 -181 -586 -217 -718 -94 -342 -96 -348 -99 -344 -2 2 -22 72 -45
154 -23 83 -135 430 -249 773 l-207 622 -272 0 c-163 0 -273 -4 -273 -9z"/>
</g>
<g transform="translate(0.000000,400.000000) scale(0.100000,-0.100000)"
fill="#fa4d1f" stroke="none">
<path d="M16385 2598 c4 -616 10 -1060 16 -1100 11 -72 52 -168 96 -223 36
-46 113 -97 183 -121 46 -16 84 -19 225 -19 167 1 232 9 343 43 l52 16 0 159
0 159 -22 -7 c-13 -3 -70 -9 -128 -11 -96 -5 -108 -3 -145 18 -50 29 -80 75
-94 139 -7 32 -11 247 -11 604 l0 555 190 0 190 0 0 175 0 175 -190 0 -190 0
0 235 0 235 -261 0 -260 0 6 -1032z"/>
<path d="M1605 3220 c-126 -20 -262 -82 -346 -158 -56 -50 -123 -140 -165
-222 l-28 -55 -12 200 c-7 110 -13 201 -13 203 -1 1 -114 2 -252 2 l-251 0 7
-37 c4 -21 9 -473 12 -1005 l4 -968 259 0 259 0 4 618 c4 675 3 663 65 792 35
71 123 165 183 195 64 33 159 47 232 35 140 -22 229 -114 274 -282 15 -55 17
-143 20 -705 l4 -643 255 0 255 0 -4 743 c-3 725 -4 744 -25 817 -87 304 -279
459 -587 474 -49 3 -117 1 -150 -4z"/>
<path d="M8205 3219 c-133 -11 -251 -63 -343 -152 -50 -48 -133 -170 -159
-233 -10 -24 -21 -44 -24 -44 -3 0 -9 84 -13 186 -4 103 -10 192 -12 198 -4 9
-70 12 -250 12 l-245 0 7 -113 c4 -62 7 -513 7 -1003 1 -489 3 -891 6 -892 3
0 119 -2 258 -3 l252 -1 3 615 c4 599 4 618 26 696 71 256 231 385 413 332
101 -30 164 -106 206 -252 15 -54 17 -130 21 -726 l3 -665 254 0 254 0 4 610
c3 592 4 614 25 695 64 243 192 367 359 347 168 -20 257 -159 271 -427 4 -65
7 -366 6 -668 -1 -494 1 -551 15 -555 9 -2 125 -4 259 -3 l243 0 -4 741 c-4
801 -3 780 -60 938 -80 222 -240 344 -475 364 -92 8 -233 -9 -307 -37 -134
-50 -248 -160 -321 -309 -22 -43 -44 -79 -49 -79 -6 -1 -17 20 -24 47 -32 119
-116 241 -209 301 -100 64 -243 93 -397 80z"/>
<path d="M3448 3204 c-105 -16 -253 -64 -328 -106 -223 -125 -379 -339 -441
-604 -27 -116 -37 -387 -19 -517 49 -361 239 -631 537 -761 195 -85 463 -105
718 -55 551 110 839 618 728 1288 -55 336 -232 578 -503 687 -187 76 -467 104
-692 68z m314 -355 c122 -26 225 -108 279 -222 111 -239 104 -689 -14 -910
-86 -163 -261 -245 -462 -216 -152 21 -244 97 -309 258 -51 126 -61 198 -60
431 1 239 13 312 75 437 87 179 280 266 491 222z"/>
<path d="M13644 3199 c-224 -21 -398 -135 -521 -343 -62 -105 -59 -110 -68
128 -3 94 -8 172 -11 175 -3 3 -116 6 -251 7 l-245 1 7 -41 c4 -23 9 -472 11
-999 l5 -957 257 2 257 3 2 590 c1 658 3 680 68 812 57 115 157 202 259 227
52 13 166 8 217 -9 64 -22 138 -90 172 -158 60 -124 60 -123 64 -824 l4 -643
255 0 254 0 0 663 c0 382 -4 700 -10 752 -23 202 -82 340 -194 451 -131 131
-303 183 -532 163z"/>
<path d="M11073 3189 c-307 -36 -522 -166 -623 -374 -25 -52 -74 -205 -67
-211 3 -2 192 -13 377 -20 l165 -6 17 70 c21 92 63 153 125 184 42 20 63 23
158 23 94 0 116 -3 151 -22 97 -52 134 -139 142 -330 l5 -133 -179 0 c-362 -1
-510 -17 -654 -69 -200 -73 -322 -205 -371 -401 -20 -78 -17 -287 4 -369 40
-151 144 -283 269 -341 107 -50 179 -64 323 -64 149 0 217 15 335 71 90 43
218 165 268 256 18 31 36 57 40 57 4 0 15 -35 25 -79 20 -91 75 -188 127 -226
98 -72 317 -88 533 -38 l67 15 0 140 c0 128 -1 139 -17 134 -19 -5 -79 -9
-127 -7 -37 1 -100 63 -117 116 -9 29 -14 184 -19 565 -6 456 -9 533 -24 585
-73 249 -262 410 -546 465 -74 15 -298 20 -387 9z m457 -1171 c0 -109 -16
-183 -61 -276 -74 -155 -200 -248 -351 -259 -90 -7 -147 8 -194 49 -55 48 -76
100 -82 198 -5 103 12 175 58 239 62 85 160 107 533 119 l97 4 0 -74z"/>
<path d="M4953 2433 c3 -731 4 -750 25 -823 58 -202 159 -335 312 -408 107
-51 177 -66 315 -66 132 0 207 18 324 75 108 53 205 148 277 271 l51 87 7
-137 c3 -75 9 -165 13 -199 l6 -63 250 0 250 0 -6 98 c-4 53 -7 505 -7 1005
l0 907 -259 0 -260 0 -4 -607 c-3 -529 -6 -616 -21 -672 -28 -106 -73 -190
-140 -257 -79 -78 -147 -106 -261 -107 -157 0 -257 74 -311 233 -38 112 -44
235 -44 841 l0 569 -260 0 -261 0 4 -747z"/>
<path d="M15731 3155 c-12 -14 -1151 -1985 -1151 -1991 0 -2 116 -3 257 -2
l258 3 577 999 c318 550 578 1000 578 1001 0 1 -115 2 -255 1 -166 0 -259 -4
-264 -11z"/>
<path d="M17400 3161 c0 -3 177 -451 394 -994 l394 -989 -48 -109 c-60 -135
-126 -230 -184 -264 -69 -40 -173 -58 -297 -50 l-105 7 0 -183 1 -183 40 -10
c22 -5 126 -10 230 -10 215 -1 267 8 393 70 140 68 272 226 381 454 28 58 221
560 430 1115 208 556 391 1040 405 1078 l25 67 -272 0 -272 0 -157 -497 c-87
-274 -191 -621 -233 -772 -41 -151 -76 -276 -78 -278 -2 -1 -16 43 -31 99 -44
168 -139 464 -310 973 l-161 480 -272 1 c-150 0 -273 -2 -273 -5z"/>
</g>
</svg>
