<?xml version="1.0" encoding="UTF-8" standalone="no"?>
<svg version="1.0" xmlns="http://www.w3.org/2000/svg"
 width="2000.000000pt" height="400.000000pt" viewBox="0 0 2000.000000 400.000000"
 preserveAspectRatio="xMidYMid meet">
<g transform="translate(0.000000,400.000000) scale(0.100000,-0.100000)"
fill="#ffffff" stroke="none">
<path d="M16383 2573 c3 -1169 0 -1101 62 -1228 35 -71 128 -157 200 -184 87
-33 187 -44 312 -36 110 6 260 32 316 54 l27 11 0 164 0 165 -31 -9 c-61 -18
-173 -23 -219 -10 -56 15 -112 72 -130 131 -10 33 -14 180 -17 607 l-4 562
190 0 191 0 0 180 0 180 -190 0 -190 0 0 240 0 240 -260 0 -261 0 4 -1067z"/>
<path d="M1581 3219 c-222 -43 -372 -158 -487 -372 l-31 -58 -6 191 c-4 105
-9 195 -12 201 -4 5 -111 9 -257 9 l-250 0 6 -52 c4 -29 9 -482 12 -1005 l6
-953 258 0 258 0 5 603 c4 660 5 673 66 799 42 87 107 158 183 198 53 29 76
35 145 38 191 10 297 -75 355 -286 21 -74 22 -104 26 -714 l4 -638 259 0 260
0 -4 728 c-4 698 -5 730 -25 814 -53 218 -162 366 -327 444 -120 57 -310 79
-444 53z"/>
<path d="M8165 3224 c-163 -34 -284 -107 -368 -222 -19 -26 -53 -80 -75 -120
l-40 -74 -6 119 c-4 65 -9 151 -12 191 l-6 72 -255 0 -255 0 7 -37 c4 -21 9
-476 12 -1010 l4 -973 265 0 264 0 0 594 c0 670 2 699 70 843 63 134 147 202
263 211 157 12 256 -80 304 -285 13 -57 16 -171 20 -715 l5 -648 258 0 259 0
3 623 c4 601 4 625 25 698 45 159 121 269 215 309 43 18 65 22 123 18 139 -9
208 -78 258 -256 20 -74 21 -99 25 -734 l3 -658 265 0 264 0 0 665 c0 405 -4
703 -11 761 -38 348 -184 551 -436 610 -105 25 -306 16 -400 -18 -143 -51
-243 -145 -335 -315 l-46 -86 -12 44 c-23 87 -79 188 -140 249 -67 69 -150
112 -256 135 -64 14 -212 18 -259 9z"/>
<path d="M3423 3206 c-319 -61 -552 -236 -680 -514 -79 -170 -115 -416 -94
-641 27 -302 114 -496 300 -673 188 -180 440 -260 765 -245 331 16 583 136
752 360 61 80 137 241 163 342 65 258 49 607 -39 834 -108 279 -291 437 -599
518 -84 23 -120 26 -296 29 -139 2 -222 -1 -272 -10z m382 -373 c187 -59 281
-224 304 -530 18 -233 -13 -447 -85 -583 -44 -85 -104 -142 -192 -183 -64 -31
-72 -32 -192 -32 -135 0 -181 13 -258 72 -73 55 -144 205 -172 358 -18 103
-23 284 -11 396 28 260 114 415 266 485 94 43 233 50 340 17z"/>
<path d="M13565 3195 c-208 -45 -351 -158 -464 -366 l-28 -50 -7 173 c-4 95
-10 183 -13 196 l-5 22 -255 0 -255 0 8 -22 c4 -13 9 -465 11 -1005 l4 -983
264 0 264 0 3 618 c4 547 6 624 21 677 44 152 134 271 244 323 79 36 212 38
288 4 94 -43 153 -119 191 -248 16 -53 18 -122 21 -716 l4 -658 260 0 260 0
-3 748 c-3 738 -4 748 -26 826 -71 255 -230 413 -464 460 -92 19 -240 19 -323
1z"/>
<path d="M10995 3184 c-273 -49 -459 -175 -555 -377 -33 -69 -65 -180 -57
-200 4 -11 43 -15 174 -21 92 -3 213 -9 269 -13 l100 -6 17 69 c26 102 60 153
129 187 50 26 67 29 150 29 114 0 164 -18 213 -75 48 -56 71 -138 80 -279 l7
-118 -53 -1 c-244 -2 -584 -19 -645 -33 -266 -58 -431 -191 -500 -403 -24 -74
-30 -311 -10 -397 26 -111 71 -193 145 -266 113 -112 249 -160 450 -160 146 0
233 19 341 71 67 33 102 59 165 123 46 46 93 106 110 138 16 31 31 55 33 53 2
-1 9 -32 17 -68 29 -139 101 -234 211 -278 54 -22 71 -24 219 -22 116 1 181 7
235 20 l75 18 3 143 3 143 -69 -7 c-97 -9 -150 14 -183 82 l-24 49 -6 525 c-6
491 -7 530 -27 599 -73 259 -265 427 -547 476 -110 19 -360 19 -470 -1z m525
-1191 c0 -96 -14 -162 -52 -245 -56 -119 -171 -222 -279 -248 -71 -17 -171
-15 -213 5 -50 24 -103 86 -117 137 -14 54 -14 181 0 235 13 47 60 115 95 138
60 39 210 61 434 64 l132 1 0 -87z"/>
<path d="M4943 2453 c4 -697 5 -732 25 -814 52 -216 157 -360 317 -439 198
-97 451 -92 660 12 87 44 219 180 271 281 l41 79 7 -186 c4 -103 9 -193 12
-201 5 -13 44 -15 257 -15 l250 0 -6 158 c-4 86 -7 538 -7 1005 l0 847 -265 0
-265 0 0 -589 c0 -658 -3 -691 -65 -817 -43 -87 -120 -168 -194 -203 -49 -23
-69 -26 -156 -26 -89 0 -106 3 -151 27 -84 44 -132 112 -173 243 -13 42 -15
151 -18 708 l-4 657 -270 0 -270 0 4 -727z"/>
<path d="M15691 3103 c-22 -38 -283 -489 -580 -1003 l-540 -935 261 -3 c144
-1 265 1 269 5 4 5 265 453 579 998 315 545 574 993 577 998 2 4 -115 7 -261
7 l-265 0 -40 -67z"/>
<path d="M17390 3165 c0 -3 176 -445 391 -982 216 -538 394 -986 396 -995 3
-10 -24 -78 -60 -151 -116 -238 -170 -272 -419 -272 l-148 1 0 -187 c0 -218
-20 -193 165 -210 281 -27 495 29 645 167 78 73 172 215 248 374 46 95 826
2145 850 2233 4 16 -12 17 -273 15 l-278 -3 -138 -435 c-77 -239 -177 -574
-225 -745 -47 -170 -88 -318 -92 -327 -5 -11 -25 47 -57 160 -27 97 -137 443
-245 767 l-196 590 -282 3 c-155 1 -282 0 -282 -3z"/>
</g>
</svg>
